<svg width="32" height="32" viewBox="0 0 32 32" fill="none" xmlns="http://www.w3.org/2000/svg">
    <path d="M0.5 9.2868L9.2868 0.5L21.7132 0.5L30.5 9.2868V21.7132L21.7132 30.5H9.2868L0.5 21.7132L0.5 9.2868Z" fill="#B7313C" stroke="#B7313C"></path>
    <path d="M17 17.5C17 18.3284 16.3284 19 15.5 19C14.6716 19 14 18.3284 14 17.5L14 7.5C14 6.67157 14.6716 6 15.5 6C16.3284 6 17 6.67157 17 7.5L17 17.5Z" fill="#FFFFFF"></path>
    <path d="M17 23.5C17 24.3284 16.3284 25 15.5 25C14.6716 25 14 24.3284 14 23.5C14 22.6716 14.6716 22 15.5 22C16.3284 22 17 22.6716 17 23.5Z" fill="white"></path>
</svg>