<svg width="32" height="32" viewBox="0 0 32 32" fill="none" xmlns="http://www.w3.org/2000/svg">
	<path d="M0.5 15.5C0.5 23.7843 7.21573 30.5 15.5 30.5C23.7843 30.5 30.5 23.7843 30.5 15.5C30.5 7.21573 23.7843 0.5 15.5 0.5C7.21573 0.5 0.5 7.21573 0.5 15.5Z" fill="#FFFFFF" stroke="#278CDD" stroke-linecap="round"></path>
	<path d="M14 13.5C14 12.6716 14.6716 12 15.5 12C16.3284 12 17 12.6716 17 13.5V23.5C17 24.3284 16.3284 25 15.5 25C14.6716 25 14 24.3284 14 23.5V13.5Z" fill="#278CDD"></path>
	<path d="M14 7.5C14 6.67157 14.6716 6 15.5 6C16.3284 6 17 6.67157 17 7.5C17 8.32843 16.3284 9 15.5 9C14.6716 9 14 8.32843 14 7.5Z" fill="#278CDD"></path>
</svg>