<svg width="32" height="32" viewBox="0 0 32 32" fill="none" xmlns="http://www.w3.org/2000/svg">
    <path d="M15.5 1.5L30.5 28.5H0.5L15.5 1.5Z" fill=" #FFEF91" stroke="#674C06" stroke-linecap="square" stroke-linejoin="round"></path>
    <path d="M17 18.5C17 19.3284 16.3284 20 15.5 20C14.6716 20 14 19.3284 14 18.5L14 10.5C14 9.67157 14.6716 9 15.5 9C16.3284 9 17 9.67157 17 10.5L17 18.5Z" fill="#674C07"></path>
    <path d="M17 24.5C17 25.3284 16.3284 26 15.5 26C14.6716 26 14 25.3284 14 24.5C14 23.6716 14.6716 23 15.5 23C16.3284 23 17 23.6716 17 24.5Z" fill="#674C07"></path>
</svg>